#!OML:ASF F:\VICON\USERDATA\INSTALL\rory3\rory3.ASF
:FULLY-SPECIFIED
:DEGREES
886
root -7.2157 16.3441 11.77 43.0746 -69.2926 4.56695
lowerback 38.381 -4.39228 -2.60591
upperback 13.5384 -7.1972 -0.50126
thorax -3.46524 -3.82349 3.33353
lowerneck -22.7316 -0.0648232 -9.38209
upperneck 16.9569 1.13486 8.35209
head 8.93235 0.849599 4.59809
rclavicle -3.65764e-014 -1.74931e-014
rhumerus -16.9732 11.161 -84.3605
rradius 76.7764
rwrist -2.41119
rhand -24.6458 9.60889
rfingers 7.12502
rthumb 1.85368 -20.3628
lclavicle -3.65764e-014 -1.74931e-014
lhumerus 53.6231 9.71771 73.0903
lradius 21.0043
lwrist -19.3048
lhand -50.3308 36.5192
lfingers 7.12502
lthumb -22.9066 65.1785
rfemur -90.5469 0.636942 27.4474
rtibia 51.3269
rfoot -3.50836 8.83497
rtoes 20.9234
lfemur -70.239 5.46325 -22.7126
ltibia 57.5211
lfoot -24.8139 2.50784
ltoes -20.9547
887
root -7.23651 16.2927 11.7702 43.7501 -69.3592 4.46336
lowerback 38.5964 -4.38186 -2.65293
upperback 13.5689 -7.20395 -0.518424
thorax -3.49684 -3.82362 3.35196
lowerneck -22.658 -0.0580011 -9.43611
upperneck 16.6954 1.14683 8.4438
head 8.82752 0.86522 4.63093
rclavicle -1.59028e-014 5.20816e-014
rhumerus -17.1101 11.0703 -84.428
rradius 76.3275
rwrist -2.34378
rhand -24.1475 10.415
rfingers 7.12502
rthumb 2.33488 -19.5519
lclavicle -1.59028e-014 5.20816e-014
lhumerus 54.6588 10.416 73.6997
lradius 20.6632
lwrist -19.6393
lhand -50.817 38.0088
lfingers 7.12502
lthumb -23.3731 66.6096
rfemur -91.5478 0.769744 27.6562
rtibia 52
rfoot -3.66232 8.96055
rtoes 20.5904
lfemur -71.2769 5.74661 -22.8888
ltibia 58.3559
lfoot -24.9974 2.03805
ltoes -20.1356
888
root -7.25871 16.2455 11.7717 44.6757 -69.3389 4.02404
lowerback 38.8507 -4.39462 -2.5995
upperback 13.6069 -7.19941 -0.452537
thorax -3.53258 -3.81998 3.40414
lowerneck -22.8014 -0.0579431 -9.60968
upperneck 16.6557 1.20655 8.50736
head 8.83095 0.892275 4.6916
rclavicle 6.36111e-014 -1.72943e-014
rhumerus -17.2006 11.1882 -84.4058
rradius 76.0379
rwrist -2.42228
rhand -24.1763 10.0713
rfingers 7.12502
rthumb 2.30709 -19.8959
lclavicle 6.36111e-014 -1.72943e-014
lhumerus 55.7066 11.2093 74.4363
lradius 20.3768
lwrist -19.9016
lhand -51.1906 39.2639
lfingers 7.12502
lthumb -23.7314 67.8187
rfemur -92.3792 0.916156 27.9349
rtibia 52.6406
rfoot -3.80652 9.01728
rtoes 21.9191
lfemur -72.2356 6.00106 -22.8909
ltibia 59.1761
lfoot -25.1623 2.17195
ltoes -21.7566
889
root -7.27909 16.1986 11.7755 45.421 -69.3425 3.71843
lowerback 39.1342 -4.38479 -2.53224
upperback 13.6483 -7.16601 -0.394694
thorax -3.57715 -3.80228 3.43258
lowerneck -22.9215 -0.076771 -9.6371
upperneck 16.573 1.22396 8.42655
head 8.82208 0.893563 4.66962
rclavicle 3.49861e-014 5.725e-014
rhumerus -17.2991 11.1278 -84.3202
rradius 75.7578
rwrist -2.43671
rhand -24.0729 9.48225
rfingers 7.12502
rthumb 2.40697 -20.4839
lclavicle 3.49861e-014 5.725e-014
lhumerus 56.6232 11.686 74.7776
lradius 20.2149
lwrist -19.6952
lhand -51.476 39.9739
lfingers 7.12502
lthumb -24.0051 68.4929
rfemur -93.0995 1.02405 28.1172
rtibia 53.2271
rfoot -3.96262 9.00199
rtoes 23.7495
lfemur -73.0891 6.08046 -22.8064
ltibia 59.9776
lfoot -25.288 2.43194
ltoes -23.2223
890
root -7.29876 16.1532 11.7761 46.0174 -69.4049 3.59163
lowerback 39.392 -4.35861 -2.5816
upperback 13.6449 -7.15167 -0.367973
thorax -3.65348 -3.79271 3.49526
lowerneck -22.8724 0.0131512 -9.60981
upperneck 16.4213 1.36674 8.30343
head 8.74824 0.950663 4.63407
rclavicle 2.8625e-014 5.00937e-014
rhumerus -17.5102 11.1351 -84.2806
rradius 75.5416
rwrist -2.70827
rhand -23.809 9.34974
rfingers 7.12502
rthumb 2.66186 -20.6134
lclavicle 2.8625e-014 5.00937e-014
lhumerus 57.349 12.141 75.1155
lradius 20.1742
lwrist -19.4836
lhand -51.8006 40.4949
lfingers 7.12502
lthumb -24.3164 68.9726
rfemur -93.8488 1.13137 28.3915
rtibia 53.7224
rfoot -4.23356 9.06126
rtoes 23.4844
lfemur -73.9617 6.13784 -22.785
ltibia 60.7651
lfoot -25.3677 2.51322
ltoes -23.7992
891
root -7.31759 16.1104 11.7738 46.8513 -69.459 3.23926
lowerback 39.6243 -4.34428 -2.70135
upperback 13.6291 -7.16937 -0.288967
thorax -3.71935 -3.80269 3.65807
lowerneck -22.8321 0.14635 -9.72974
upperneck 16.2974 1.61579 8.18486
head 8.67374 1.04864 4.63905
rclavicle -8.26944e-014 5.28767e-014
rhumerus -17.7041 11.4556 -84.2263
rradius 75.355
rwrist -3.28578
rhand -23.5406 10.3232
rfingers 7.12502
rthumb 2.92102 -19.6365
lclavicle -8.26944e-014 5.28767e-014
lhumerus 57.9896 12.8208 75.611
lradius 20.2253
lwrist -19.4954
lhand -51.9247 41.3456
lfingers 7.12502
lthumb -24.4353 69.8073
rfemur -94.6114 1.27647 28.9474
rtibia 54.1343
rfoot -4.61987 9.29491
rtoes 21.9844
lfemur -74.8756 6.29808 -22.7305
ltibia 61.5547
lfoot -25.3956 2.70881
ltoes -25.2374
892
root -7.33397 16.066 11.7756 47.8106 -69.439 2.77229
lowerback 39.8254 -4.30826 -2.67173
upperback 13.6009 -7.10673 -0.189653
thorax -3.80694 -3.77046 3.7384
lowerneck -22.7299 0.109608 -9.68594
upperneck 16.1308 1.57646 8.05494
head 8.60518 1.02054 4.57356
rclavicle 1.24042e-013 2.26615e-014
rhumerus -17.9702 11.6562 -84.2416
rradius 75.1393
rwrist -3.02531
rhand -23.9956 10.4947
rfingers 7.12502
rthumb 2.48161 -19.4706
lclavicle 1.24042e-013 2.26615e-014
lhumerus 58.6579 13.2538 76.0702
lradius 20.261
lwrist -19.5445
lhand -52.0041 42.5348
lfingers 7.12502
lthumb -24.5114 70.9861
rfemur -95.3523 1.38812 29.5221
rtibia 54.4857
rfoot -4.98224 9.53935
rtoes 21.2791
lfemur -75.8081 6.3796 -22.558
ltibia 62.3421
lfoot -25.4595 3.13296
ltoes -27.3016
893
root -7.34745 16.0225 11.7818 48.5244 -69.4144 2.54162
lowerback 40.0492 -4.31674 -2.59356
upperback 13.5314 -7.07777 -0.110971
thorax -3.95176 -3.74762 3.78864
lowerneck -22.5411 0.0717708 -9.7165
upperneck 15.8878 1.53792 8.00084
head 8.49436 0.996585 4.54306
rclavicle 1.59028e-014 -6.87795e-014
rhumerus -18.2023 11.6315 -84.2103
rradius 74.7914
rwrist -2.95151
rhand -23.9754 10.7248
rfingers 7.12502
rthumb 2.50109 -19.2403
lclavicle 1.59028e-014 -6.87795e-014
lhumerus 59.3161 13.6536 76.5265
lradius 20.1721
lwrist -19.4993
lhand -52.4538 43.4614
lfingers 7.12502
lthumb -24.9425 71.8537
rfemur -96.0644 1.44533 29.8546
rtibia 54.7988
rfoot -5.19365 9.7672
rtoes 22.0423
lfemur -76.7064 6.36684 -22.435
ltibia 63.0948
lfoot -25.5386 3.27768
ltoes -28.0667
894
root -7.36094 15.9827 11.7851 49.0155 -69.4398 2.47252
lowerback 40.2852 -4.30282 -2.72239
upperback 13.5074 -7.09145 0.0470936
thorax -4.01681 -3.75901 4.03803
lowerneck -22.516 0.107256 -10.0963
upperneck 15.7508 1.71108 8.01277
head 8.42272 1.05873 4.62648
rclavicle 8.5875e-014 4.29375e-014
rhumerus -18.3294 11.9383 -84.0111
rradius 74.5336
rwrist -3.31952
rhand -24.0975 10.6457
rfingers 7.12502
rthumb 2.38319 -19.3207
lclavicle 8.5875e-014 4.29375e-014
lhumerus 60.186 14.4112 77.4895
lradius 19.8742
lwrist -19.826
lhand -52.9434 43.7302
lfingers 7.12502
lthumb -25.4115 72.0566
rfemur -96.6793 1.50451 30.119
rtibia 55.0774
rfoot -5.37927 10.0184
rtoes 22.8694
lfemur -77.496 6.34136 -22.3395
ltibia 63.8072
lfoot -25.5888 2.9856
ltoes -27.7111
895
root -7.37507 15.948 11.7864 49.3429 -69.5113 2.46571
lowerback 40.5884 -4.20514 -3.05572
upperback 13.5667 -7.07778 0.336372
thorax -3.97566 -3.77805 4.51577
lowerneck -22.7794 0.0428152 -10.754
upperneck 15.7411 1.84208 8.13878
head 8.44341 1.09866 4.80027
rclavicle -5.40694e-014 -5.20816e-014
rhumerus -18.2944 12.4569 -83.6405
rradius 74.347
rwrist -3.56489
rhand -24.4516 10.2781
rfingers 7.12502
rthumb 2.04117 -19.6919
lclavicle -5.40694e-014 -5.20816e-014
lhumerus 61.286 15.3637 78.9653
lradius 19.4562
lwrist -20.8652
lhand -53.0156 43.426
lfingers 7.12502
lthumb -25.4807 71.7425
rfemur -97.1692 1.51384 30.4735
rtibia 55.3476
rfoot -5.54369 10.4023
rtoes 23.2353
lfemur -78.1031 6.30308 -22.25
ltibia 64.449
lfoot -25.6058 2.8968
ltoes -27.7862
